<svg xmlns="http://www.w3.org/2000/svg" width="169.6" height="169.6"><path stroke="blue" stroke-width="1" d="M 75 10 L 76 11 L 78 21 L 77 24 L 78 24 L 81 24 L 81 23 L 81 21 L 82 10 L 83 10 L 83 11 L 86 23 L 86 31 L 87 36 L 88 40 L 91 47 L 93 42 L 96 40 L 98 40 L 100 43 L 99 50 L 99 52 L 100 56 L 104 67 L 108 73 L 113 84 L 118 97 L 120 105 L 121 113 L 122 128 L 121 136 L 120 144 L 120 145 L 118 146 L 117 147 L 116 147 L 114 146 L 113 145 L 113 144 L 112 140 L 112 139 L 109 123 L 107 113 L 104 102 L 101 95 L 100 93 L 99 88 L 93 77 L 92 76 L 91 77 L 90 75 L 87 64 L 87 63 L 84 59 L 79 50 L 74 59 L 71 63 L 71 63 L 72 64 L 69 75 L 67 77 L 66 77 L 65 78 L 63 82 L 59 90 L 58 94 L 55 98 L 53 106 L 49 118 L 46 139 L 46 141 L 45 142 L 45 144 L 43 146 L 41 147 L 39 146 L 38 145 L 37 143 L 36 129 L 35 122 L 36 112 L 39 100 L 41 92 L 44 86 L 50 72 L 53 68 L 57 58 L 58 53 L 58 47 L 58 44 L 57 44 L 58 44 L 58 42 L 59 41 L 60 40 L 62 40 L 64 42 L 67 47 L 69 42 L 71 37 L 72 35 L 72 33 L 72 32 L 72 30 L 72 24 L 74 12 Z " fill="none"/></svg>