<svg xmlns="http://www.w3.org/2000/svg" width="488.79999999999995" height="648.4"><rect stroke="red" stroke-width="1" transform="scale(3.8 3.8)" x="0" y="0" width="126" height="168" rx="3.8" fill="transparent"/><circle stroke="blue" stroke-width="1" transform="scale(3.8 3.8)" cx="63.0" cy="84.0" r="1" fill="transparent"/><rect stroke="green" stroke-width="1" transform="scale(3.8 3.8)" x="5" y="108" width="116" height="55" rx="7" fill="none"/><path stroke="blue" stroke-width="1" d="M 225 59 L 227 60 L 234 100 L 233 109 L 236 115 L 247 112 L 248 108 L 247 100 L 252 60 L 254 59 L 257 62 L 268 112 L 267 136 L 271 159 L 278 182 L 286 201 L 296 180 L 304 173 L 311 173 L 314 175 L 319 181 L 320 181 L 321 185 L 318 198 L 317 210 L 319 229 L 332 266 L 351 301 L 368 341 L 387 391 L 394 420 L 400 453 L 402 480 L 402 499 L 400 528 L 395 566 L 390 574 L 384 577 L 374 575 L 370 572 L 368 567 L 347 454 L 335 413 L 316 359 L 291 310 L 286 310 L 282 306 L 269 261 L 271 261 L 259 244 L 240 212 L 224 239 L 208 261 L 211 262 L 198 307 L 194 311 L 189 311 L 184 320 L 178 333 L 164 359 L 149 396 L 139 427 L 129 465 L 112 550 L 113 554 L 111 556 L 109 567 L 104 574 L 94 577 L 91 577 L 87 574 L 82 566 L 76 517 L 75 478 L 78 448 L 90 395 L 107 347 L 129 300 L 142 277 L 157 238 L 161 225 L 162 212 L 158 188 L 157 188 L 159 183 L 158 182 L 160 182 L 167 174 L 174 174 L 182 182 L 193 201 L 202 179 L 208 160 L 214 153 L 214 148 L 212 141 L 214 132 L 213 113 L 222 62 Z " fill="none"/></svg>